# xmcd
#
# Track frame offsets:
#	183
#	19625
#	39928
#	61965
#
# Disc length: 1091 seconds
#
# Revision: 1
# Processed by: cddbd v1.5.2PL0 Copyright (c) Steve Scherf et al.
# Submitted via: audiograbber 1.83.01
#
DISCID=25044104
DTITLE=Healey Band, Jeff - Lost in your eyes
DYEAR=1993
DGENRE=Blues
TTITLE0=Lost in your eyes
TTITLE1=Evil and here to stay
TTITLE2=When the night comes falling from the sky
TTITLE3=I'm tore down
EXTD=
EXTT0=
EXTT1=
EXTT2=
EXTT3=
PLAYORDER=
